<svg width="48" height="48" viewBox="0 0 48 48" fill="none" xmlns="http://www.w3.org/2000/svg">
<mask id="mask0_38_186" style="mask-type:luminance" maskUnits="userSpaceOnUse" x="0" y="0" width="48" height="48">
<path d="M48 0H0V48H48V0Z" fill="white"/>
</mask>
<g mask="url(#mask0_38_186)">
<path fill-rule="evenodd" clip-rule="evenodd" d="M24 46.125C36.2193 46.125 46.125 36.2193 46.125 24C46.125 11.7807 36.2193 1.875 24 1.875C11.7807 1.875 1.875 11.7807 1.875 24C1.875 36.2193 11.7807 46.125 24 46.125ZM24 48C37.2548 48 48 37.2548 48 24C48 10.7452 37.2548 0 24 0C10.7452 0 0 10.7452 0 24C0 37.2548 10.7452 48 24 48Z" fill="white"/>
<path fill-rule="evenodd" clip-rule="evenodd" d="M17.546 20.6811C17.56 20.778 17.6406 20.8536 17.7385 20.8536H21.7539C21.8579 20.8536 21.9423 20.769 21.939 20.6651C21.9055 19.607 21.6324 18.6773 21.1195 17.8763C20.5819 17.0225 19.8168 16.3609 18.8239 15.8916C17.831 15.4222 16.6544 15.1875 15.2941 15.1875C13.9611 15.1875 12.7789 15.4193 11.7477 15.883C10.722 16.3467 9.91835 16.9942 9.3369 17.8254C8.76092 18.651 8.47568 19.6152 8.48117 20.7178C8.47568 22.075 8.90081 23.1466 9.75654 23.9326C10.6177 24.713 11.7944 25.2699 13.2864 25.6036L14.9649 25.9768C15.5902 26.1182 16.0867 26.2708 16.4542 26.4348C16.8217 26.5931 17.0851 26.7741 17.2441 26.9777C17.4087 27.1756 17.4937 27.4074 17.4992 27.6732C17.4937 27.956 17.4059 28.2076 17.2359 28.4281C17.0659 28.6487 16.8163 28.8211 16.4871 28.9455C16.158 29.0699 15.7493 29.1322 15.2612 29.1322C14.6797 29.1322 14.1778 29.0389 13.7554 28.8522C13.3385 28.6657 13.0148 28.3913 12.7845 28.0295C12.5802 27.7087 12.4557 27.3211 12.411 26.8669C12.4012 26.7676 12.3195 26.6893 12.2196 26.6893H8.24152C8.13768 26.6893 8.05344 26.7739 8.05571 26.8777C8.08563 28.2459 8.38652 29.3764 8.9584 30.2688C9.56182 31.1962 10.4065 31.8832 11.4927 32.3299C12.5842 32.7766 13.8623 33 15.327 33C16.7532 33 17.9736 32.7936 18.9885 32.3808C19.448 32.1949 19.8597 31.9705 20.2235 31.7078L20.4987 32.6763C20.5217 32.7569 20.5953 32.8125 20.6791 32.8125H24.7603C24.8435 32.8125 24.9168 32.7577 24.9402 32.6777L27.7365 23.135C27.7474 23.0977 27.7816 23.0721 27.8205 23.0721C27.8594 23.0721 27.8936 23.0977 27.9046 23.135L30.7008 32.6777C30.7242 32.7577 30.7975 32.8125 30.8808 32.8125H34.9619C35.0457 32.8125 35.1194 32.7569 35.1423 32.6763L39.9895 15.6138C40.0235 15.4941 39.9336 15.375 39.8091 15.375H35.1241C35.0356 15.375 34.9592 15.4369 34.9407 15.5234L32.6898 26.0718C32.6817 26.1099 32.648 26.1372 32.609 26.1372C32.5712 26.1372 32.5382 26.1115 32.5289 26.0748L29.8575 15.5165C29.8365 15.4333 29.7616 15.375 29.6757 15.375H25.9652C25.8794 15.375 25.8045 15.4332 25.7834 15.5164L23.1122 26.0408C23.1029 26.0775 23.0699 26.1032 23.032 26.1032C22.993 26.1032 22.9593 26.0759 22.9511 26.0377L22.196 22.51C22.196 22.51 21.9209 22.51 20.2235 22.51C18.5262 22.51 15.8873 22.1048 15.5307 22.0425L15.5244 22.0411C15.124 21.9562 14.7784 21.8602 14.4877 21.7527C14.197 21.6453 13.9583 21.5265 13.7719 21.3965C13.5854 21.2607 13.4482 21.1109 13.3605 20.9468C13.2782 20.7772 13.2425 20.5878 13.2535 20.3785C13.2589 20.1241 13.333 19.8979 13.4756 19.7C13.6183 19.5021 13.8377 19.3465 14.1339 19.2335C14.4356 19.1147 14.8223 19.0553 15.2941 19.0553C16.0346 19.0553 16.5859 19.2137 16.9479 19.5304C17.2772 19.8141 17.4766 20.1976 17.546 20.6811ZM18.7987 15.375H20.6687L20.9731 16.7969C20.9731 16.7969 20.5767 16.3125 20.0142 15.9576C19.4517 15.6027 18.7987 15.375 18.7987 15.375Z" fill="white"/>
</g>
</svg>
