<svg width="512" height="512" viewBox="0 0 512 512" fill="none" xmlns="http://www.w3.org/2000/svg">
<mask id="mask0_36_125" style="mask-type:luminance" maskUnits="userSpaceOnUse" x="0" y="0" width="512" height="512">
<path d="M512 0H0V512H512V0Z" fill="white"/>
</mask>
<g mask="url(#mask0_36_125)">
<path fill-rule="evenodd" clip-rule="evenodd" d="M256 492C386.339 492 492 386.339 492 256C492 125.661 386.339 20 256 20C125.661 20 20 125.661 20 256C20 386.339 125.661 492 256 492ZM256 512C397.385 512 512 397.385 512 256C512 114.615 397.385 0 256 0C114.615 0 0 114.615 0 256C0 397.385 114.615 512 256 512Z" fill="white"/>
<path fill-rule="evenodd" clip-rule="evenodd" d="M187.173 220.598C187.322 221.632 188.182 222.438 189.226 222.438H232.057C233.166 222.438 234.066 221.536 234.031 220.428C233.674 209.141 230.761 199.225 225.29 190.681C219.556 181.573 211.394 174.516 200.804 169.51C190.213 164.503 177.662 162 163.152 162C148.934 162 136.324 164.473 125.324 169.419C114.383 174.365 105.811 181.271 99.6084 190.138C93.4647 198.944 90.4221 209.229 90.4807 220.99C90.4221 235.467 94.9568 246.897 104.085 255.281C113.271 263.605 125.822 269.546 141.737 273.105L159.641 277.086C166.311 278.594 171.607 280.222 175.527 281.971C179.447 283.66 182.256 285.59 183.952 287.762C185.708 289.873 186.615 292.346 186.673 295.181C186.615 298.197 185.678 300.881 183.865 303.233C182.051 305.586 179.389 307.425 175.878 308.752C172.367 310.079 168.008 310.743 162.801 310.743C156.599 310.743 151.245 309.748 146.739 307.757C142.293 305.767 138.84 302.841 136.383 298.981C134.204 295.559 132.876 291.425 132.399 286.58C132.295 285.521 131.423 284.686 130.358 284.686H87.9244C86.8168 284.686 85.9182 285.588 85.9424 286.695C86.2616 301.29 89.4711 313.348 95.5711 322.867C102.008 332.759 111.018 340.087 122.604 344.852C134.247 349.617 147.88 352 163.503 352C178.716 352 191.734 349.798 202.559 345.395C207.461 343.412 211.852 341.019 215.733 338.216L218.668 348.547C218.913 349.407 219.698 350 220.592 350H264.125C265.013 350 265.794 349.415 266.044 348.562L295.871 246.773C295.987 246.375 296.352 246.102 296.767 246.102C297.182 246.102 297.547 246.375 297.664 246.773L327.49 348.562C327.74 349.415 328.522 350 329.41 350H372.942C373.836 350 374.622 349.407 374.866 348.547L426.57 166.547C426.933 165.27 425.974 164 424.646 164H374.672C373.728 164 372.913 164.66 372.716 165.583L348.707 278.099C348.62 278.506 348.261 278.797 347.845 278.797C347.441 278.797 347.089 278.523 346.99 278.131L318.495 165.509C318.271 164.622 317.472 164 316.556 164H276.977C276.062 164 275.263 164.621 275.038 165.508L246.545 277.768C246.446 278.16 246.094 278.434 245.69 278.434C245.274 278.434 244.914 278.143 244.827 277.736C244.827 277.736 238 248 236.773 244.107C235.545 240.214 234.031 240.5 215.733 240.107C197.435 239.714 175.527 237 165.676 235.12C155.825 233.24 165.609 235.105 165.609 235.105C161.338 234.2 157.652 233.175 154.551 232.029C151.45 230.883 148.904 229.616 146.915 228.229C144.926 226.781 143.463 225.183 142.527 223.433C141.649 221.624 141.269 219.603 141.386 217.371C141.444 214.657 142.234 212.244 143.755 210.133C145.277 208.022 147.617 206.363 150.777 205.157C153.995 203.89 158.12 203.257 163.152 203.257C171.051 203.257 176.931 204.946 180.793 208.324C184.305 211.35 186.432 215.441 187.173 220.598Z" fill="white"/>
</g>
</svg>
