<svg width="1400" height="220" viewBox="0 0 1400 220" fill="none" xmlns="http://www.w3.org/2000/svg">
<path d="M1237.45 217.872C1235.24 217.872 1233.45 216.081 1233.45 213.872V3.99988C1233.45 1.79074 1235.24 -0.00012207 1237.45 -0.00012207H1287.2C1289.41 -0.00012207 1291.2 1.79074 1291.2 3.99988V82.4834C1291.2 82.7568 1291.42 82.9784 1291.7 82.9784C1291.9 82.9784 1292.09 82.8509 1292.16 82.6589C1294.25 77.2511 1297.28 72.2867 1301.24 67.7657C1305.29 63.0848 1310.31 59.3614 1316.31 56.5955C1322.31 53.7586 1329.28 52.3402 1337.23 52.3402C1347.83 52.3402 1357.91 55.2125 1367.46 60.9572C1377.09 66.7018 1384.9 75.7444 1390.9 88.0848C1396.97 100.425 1400 116.454 1400 136.17C1400 155.035 1397.11 170.673 1391.32 183.085C1385.6 195.496 1377.93 204.751 1368.3 210.85C1358.75 216.95 1348.25 219.999 1336.81 219.999C1329.28 219.999 1322.55 218.758 1316.62 216.276C1310.76 213.723 1305.74 210.283 1301.56 205.957C1297.56 201.684 1294.45 196.876 1292.23 191.531C1292.11 191.249 1291.84 191.063 1291.53 191.063C1291.12 191.063 1290.78 191.399 1290.78 191.813V213.872C1290.78 216.081 1288.99 217.872 1286.78 217.872H1237.45ZM1289.95 136.17C1289.95 144.113 1290.96 150.992 1292.98 156.808C1295.07 162.553 1298 167.021 1301.77 170.212C1305.6 173.333 1310.17 174.893 1315.47 174.893C1320.77 174.893 1325.27 173.368 1328.97 170.319C1332.73 167.198 1335.59 162.765 1337.55 157.021C1339.57 151.205 1340.58 144.255 1340.58 136.17C1340.58 128.085 1339.57 121.17 1337.55 115.425C1335.59 109.61 1332.73 105.177 1328.97 102.127C1325.27 99.0067 1320.77 97.4465 1315.47 97.4465C1310.17 97.4465 1305.6 99.0067 1301.77 102.127C1298 105.177 1295.07 109.61 1292.98 115.425C1290.96 121.17 1289.95 128.085 1289.95 136.17Z" fill="white"/>
<path d="M1148.03 219.999C1130.92 219.999 1116.19 216.723 1103.81 210.17C1091.51 203.548 1082.02 194.068 1075.34 181.729C1068.74 169.321 1065.44 154.473 1065.44 137.186C1065.44 120.595 1068.77 106.096 1075.45 93.6877C1082.12 81.2797 1091.54 71.6251 1103.71 64.724C1115.87 57.8229 1130.23 54.3723 1146.77 54.3723C1158.87 54.3723 1169.82 56.2544 1179.62 60.0187C1189.42 63.7829 1197.8 69.255 1204.75 76.435C1211.71 83.5452 1217.06 92.189 1220.81 102.366C1224.57 112.544 1226.44 124.011 1226.44 136.767V146.151C1226.44 148.361 1224.65 150.151 1222.44 150.151H1087.37C1085.16 150.151 1083.37 148.361 1083.37 146.151V122.364C1083.37 120.155 1085.16 118.364 1087.37 118.364H1169.41C1171.64 118.364 1173.48 116.524 1173.1 114.325C1172.58 111.358 1171.52 108.661 1169.92 106.235C1167.7 102.68 1164.68 99.9266 1160.85 97.9748C1157.1 95.9533 1152.82 94.9425 1148.03 94.9425C1143.37 94.9425 1139.09 95.9533 1135.2 97.9748C1131.31 99.9266 1128.18 102.645 1125.81 106.131C1123.52 109.616 1122.3 113.694 1122.16 118.364V152.661C1122.16 157.819 1123.24 162.42 1125.4 166.463C1127.55 170.506 1130.65 173.678 1134.68 175.978C1138.71 178.279 1143.58 179.429 1149.28 179.429C1153.24 179.429 1156.85 178.871 1160.12 177.756C1163.46 176.641 1166.31 175.037 1168.67 172.946C1170.34 171.42 1171.7 169.686 1172.74 167.743C1173.54 166.27 1175 165.208 1176.67 165.208H1221.74C1224.21 165.208 1226.09 167.42 1225.54 169.82C1223.39 179.054 1219.41 187.206 1213.62 194.277C1206.87 202.433 1197.94 208.776 1186.82 213.307C1175.76 217.768 1162.83 219.999 1148.03 219.999Z" fill="white"/>
<path d="M847.745 218C845.624 218 843.863 216.357 843.683 214.243C841.661 190.489 827.068 61.5253 747.5 42.5C663.609 22.441 469.826 38.4974 453.149 39.9302C452.46 39.9894 452 39.434 452 38.7416C452 38.1794 452.3 37.7147 452.852 37.6064C466.736 34.8802 647.049 -0.00221288 750.5 6.5C853.044 12.9452 873.03 123.554 874.693 134.017C874.773 134.517 875.191 134.809 875.697 134.809C876.159 134.809 876.562 134.498 876.678 134.051L910.302 4.78213C910.761 3.01945 912.352 1.78906 914.173 1.78906H958.843C960.665 1.78906 962.258 3.02098 962.715 4.78512L996.333 134.441C996.454 134.906 996.874 135.232 997.355 135.232C997.852 135.232 998.281 134.886 998.387 134.401L1026.7 4.93455C1027.1 3.09808 1028.73 1.78906 1030.61 1.78906H1086.67C1089.34 1.78906 1091.26 4.3476 1090.51 6.90718L1029.89 215.118C1029.4 216.826 1027.83 218 1026.05 218H976.586C974.82 218 973.263 216.842 972.755 215.15L937.583 98.0244C937.441 97.5505 937.004 97.2259 936.509 97.2259C936.015 97.2259 935.578 97.5505 935.436 98.0244L900.264 215.15C899.756 216.842 898.199 218 896.433 218H847.745Z" fill="white"/>
<path d="M716.995 219.999C699.893 219.999 685.155 216.723 672.781 210.17C660.476 203.548 650.987 194.068 644.313 181.729C637.708 169.321 634.406 154.473 634.406 137.186C634.406 120.595 637.743 106.096 644.417 93.6877C651.091 81.2797 660.511 71.6251 672.677 64.724C684.842 57.8229 699.198 54.3723 715.744 54.3723C727.84 54.3723 738.789 56.2544 748.592 60.0187C758.394 63.7829 766.771 69.255 773.723 76.435C780.675 83.5452 786.028 92.189 789.782 102.366C793.536 112.544 795.413 124.011 795.413 136.767V146.151C795.413 148.361 793.622 150.151 791.413 150.151H656.342C654.133 150.151 652.342 148.361 652.342 146.151V122.364C652.342 120.155 654.133 118.364 656.342 118.364H738.378C740.611 118.364 742.452 116.524 742.068 114.325C741.549 111.358 740.491 108.661 738.894 106.235C736.669 102.68 733.645 99.9266 729.821 97.9748C726.067 95.9533 721.792 94.9425 716.995 94.9425C712.337 94.9425 708.062 95.9533 704.169 97.9748C700.276 99.9266 697.147 102.645 694.784 106.131C692.49 109.616 691.273 113.694 691.134 118.364V152.661C691.134 157.819 692.212 162.42 694.367 166.463C696.522 170.506 699.615 173.678 703.647 175.978C707.68 178.279 712.546 179.429 718.246 179.429C722.209 179.429 725.824 178.871 729.091 177.756C732.428 176.641 735.279 175.037 737.642 172.946C739.311 171.42 740.668 169.686 741.714 167.743C742.506 166.27 743.966 165.208 745.638 165.208H790.712C793.177 165.208 795.064 167.42 794.505 169.82C792.356 179.054 788.383 187.206 782.587 194.277C775.843 202.433 766.91 208.776 755.787 213.307C744.733 217.768 731.803 219.999 716.995 219.999Z" fill="white"/>
<path d="M529.939 216.7C527.73 216.7 525.939 214.909 525.939 212.7V59.9926C525.939 57.7834 527.73 55.9926 529.939 55.9926H577.846C580.055 55.9926 581.846 57.7834 581.846 59.9926V85.6031C581.846 86.1226 582.267 86.5436 582.786 86.5436C583.215 86.5436 583.589 86.2519 583.7 85.8377C586.629 74.8991 591.192 66.8688 597.387 61.747C603.784 56.5157 611.259 53.9 619.812 53.9C622.315 53.9 624.784 54.1093 627.217 54.5278C628.698 54.7341 630.143 55.0015 631.551 55.3299C633.266 55.73 634.414 57.301 634.414 59.062V99.7783C634.414 102.522 631.694 104.492 629.001 103.965C627.422 103.656 625.715 103.394 623.88 103.179C619.708 102.691 616.126 102.447 613.136 102.447C607.504 102.447 602.428 103.737 597.908 106.318C593.458 108.829 589.947 112.387 587.374 116.99C584.801 121.524 583.514 126.86 583.514 132.998V212.7C583.514 214.909 581.724 216.7 579.514 216.7H529.939Z" fill="white"/>
<path d="M357.91 217.872C355.701 217.872 353.91 216.081 353.91 213.872V3.99988C353.91 1.79074 355.701 -0.00012207 357.91 -0.00012207H407.278C409.487 -0.00012207 411.278 1.79074 411.278 3.99988V82.4872C411.278 82.7585 411.498 82.9784 411.769 82.9784C411.974 82.9784 412.157 82.8514 412.23 82.6603C414.305 77.252 417.313 72.2871 421.255 67.7657C425.273 63.0848 430.262 59.3614 436.22 56.5955C442.179 53.7586 449.107 52.3402 457.006 52.3402C467.537 52.3402 477.548 55.2125 487.04 60.9572C496.602 66.7018 504.361 75.7444 510.32 88.0848C516.348 100.425 519.362 116.454 519.362 136.17C519.362 155.035 516.486 170.673 510.736 183.085C505.054 195.496 497.433 204.751 487.872 210.85C478.38 216.95 467.952 219.999 456.59 219.999C449.107 219.999 442.421 218.758 436.532 216.276C430.712 213.723 425.724 210.283 421.566 205.957C417.594 201.684 414.505 196.874 412.299 191.529C412.183 191.248 411.91 191.063 411.606 191.063C411.195 191.063 410.862 191.396 410.862 191.807V213.872C410.862 216.081 409.071 217.872 406.862 217.872H357.91ZM410.031 136.17C410.031 144.113 411.035 150.992 413.044 156.808C415.123 162.553 418.033 167.021 421.774 170.212C425.585 173.333 430.123 174.893 435.389 174.893C440.654 174.893 445.123 173.368 448.795 170.319C452.537 167.198 455.377 162.765 457.317 157.021C459.327 151.205 460.331 144.255 460.331 136.17C460.331 128.085 459.327 121.17 457.317 115.425C455.377 109.61 452.537 105.177 448.795 102.127C445.123 99.0067 440.654 97.4465 435.389 97.4465C430.123 97.4465 425.585 99.0067 421.774 102.127C418.033 105.177 415.123 109.61 413.044 115.425C411.035 121.17 410.031 128.085 410.031 136.17Z" fill="white"/>
<path d="M265.963 219.999C248.583 219.999 233.706 216.549 221.332 209.647C208.957 202.677 199.468 192.987 192.864 180.579C186.259 168.101 182.957 153.637 182.957 137.186C182.957 120.735 186.259 106.305 192.864 93.8969C199.468 81.4191 208.957 71.7297 221.332 64.8285C233.706 57.8577 248.583 54.3723 265.963 54.3723C283.343 54.3723 298.22 57.8577 310.594 64.8285C322.969 71.7297 332.458 81.4191 339.063 93.8969C345.667 106.305 348.969 120.735 348.969 137.186C348.969 153.637 345.667 168.101 339.063 180.579C332.458 192.987 322.969 202.677 310.594 209.647C298.22 216.549 283.343 219.999 265.963 219.999ZM266.38 177.338C271.246 177.338 275.452 175.699 278.998 172.423C282.543 169.147 285.289 164.476 287.236 158.412C289.182 152.347 290.156 145.132 290.156 136.767C290.156 128.333 289.182 121.118 287.236 115.123C285.289 109.058 282.543 104.388 278.998 101.112C275.452 97.8354 271.246 96.1973 266.38 96.1973C261.236 96.1973 256.821 97.8354 253.137 101.112C249.452 104.388 246.637 109.058 244.69 115.123C242.744 121.118 241.77 128.333 241.77 136.767C241.77 145.132 242.744 152.347 244.69 158.412C246.637 164.476 249.452 169.147 253.137 172.423C256.821 175.699 261.236 177.338 266.38 177.338Z" fill="white"/>
<path d="M124.24 69.8475C122.154 69.8475 120.454 68.2348 120.038 66.1908C118.972 60.9467 116.535 56.7284 112.725 53.5358C108.137 49.6321 101.15 47.6803 91.7654 47.6803C85.7867 47.6803 80.8856 48.4122 77.0621 49.8761C73.308 51.2703 70.5273 53.1873 68.7198 55.627C66.9123 58.0668 65.9737 60.8552 65.9042 63.992C65.7652 66.5713 66.2171 68.9065 67.2599 70.9977C68.3722 73.0193 70.1101 74.8665 72.4738 76.5395C74.8374 78.1428 77.8615 79.6067 81.5461 80.9311C85.2306 82.2556 89.6103 83.4406 94.6852 84.4863L112.204 88.2505C124.022 90.76 134.137 94.0711 142.549 98.1839C150.961 102.297 157.843 107.141 163.196 112.718C168.549 118.225 172.477 124.429 174.98 131.33C177.552 138.231 178.873 145.76 178.942 153.916C178.873 167.997 175.362 179.917 168.41 189.676C161.458 199.435 151.517 206.859 138.587 211.948C125.726 217.036 110.257 219.581 92.1825 219.581C73.6209 219.581 57.4229 216.827 43.5886 211.32C29.8237 205.813 19.1178 197.344 11.4707 185.912C4.4672 175.281 0.670455 161.912 0.0804504 145.803C-0.000630859 143.59 1.80035 141.786 4.01555 141.786H51.2658C53.3926 141.786 55.1235 143.456 55.4179 145.562C56.1055 150.483 57.6197 154.731 59.9603 158.307C62.8801 162.769 66.9818 166.149 72.2652 168.45C77.6182 170.75 83.9792 171.9 91.3483 171.9C97.5355 171.9 102.715 171.134 106.886 169.6C111.057 168.066 114.22 165.94 116.375 163.222C118.53 160.503 119.643 157.401 119.712 153.916C119.643 150.639 118.565 147.781 116.479 145.342C114.463 142.832 111.126 140.601 106.469 138.65C101.811 136.628 95.5194 134.746 87.5942 133.003L66.3213 128.402C47.4121 124.29 32.5002 117.423 21.5857 107.804C10.7407 98.1142 5.35298 84.9045 5.4225 68.1745C5.35298 54.5814 8.96798 42.6962 16.2675 32.5188C23.6365 22.2717 33.8211 14.2901 46.8212 8.57399C59.8908 2.85792 74.8722 -0.00012207 91.7654 -0.00012207C109.006 -0.00012207 123.918 2.89277 136.501 8.67856C149.084 14.4643 158.782 22.6202 165.595 33.1462C171.811 42.5904 175.248 53.4848 175.907 65.8293C176.025 68.043 174.22 69.8475 172.003 69.8475H124.24Z" fill="white"/>
</svg>
