<svg width="64" height="64" viewBox="0 0 64 64" fill="none" xmlns="http://www.w3.org/2000/svg">
<mask id="mask0_38_186" style="mask-type:luminance" maskUnits="userSpaceOnUse" x="0" y="0" width="64" height="64">
<path d="M64 0H0V64H64V0Z" fill="white"/>
</mask>
<g mask="url(#mask0_38_186)">
<path fill-rule="evenodd" clip-rule="evenodd" d="M32 61.5C48.2924 61.5 61.5 48.2924 61.5 32C61.5 15.7076 48.2924 2.5 32 2.5C15.7076 2.5 2.5 15.7076 2.5 32C2.5 48.2924 15.7076 61.5 32 61.5ZM32 64C49.6731 64 64 49.6731 64 32C64 14.3269 49.6731 0 32 0C14.3269 0 0 14.3269 0 32C0 49.6731 14.3269 64 32 64Z" fill="white"/>
<path fill-rule="evenodd" clip-rule="evenodd" d="M23.3965 27.5748C23.4151 27.704 23.5226 27.8048 23.6531 27.8048H29.007C29.1456 27.8048 29.2581 27.692 29.2538 27.5535C29.2091 26.1426 28.845 24.9031 28.1611 23.8351C27.4444 22.6966 26.4241 21.8145 25.1004 21.1887C23.7765 20.5629 22.2076 20.25 20.3939 20.25C18.6166 20.25 17.0404 20.5591 15.6654 21.1774C14.2978 21.7956 13.2263 22.6589 12.451 23.7673C11.683 24.868 11.3027 26.1536 11.31 27.6238C11.3027 29.4334 11.8695 30.8621 13.0105 31.9101C14.1588 32.9506 15.7276 33.6933 17.717 34.1381L19.955 34.6357C20.7888 34.8242 21.4508 35.0278 21.9408 35.2464C22.4308 35.4575 22.7819 35.6987 22.9939 35.9702C23.2134 36.2341 23.3268 36.5432 23.334 36.8976C23.3268 37.2746 23.2096 37.6101 22.983 37.9041C22.7563 38.1983 22.4235 38.4281 21.9846 38.594C21.5458 38.7599 21.0009 38.8429 20.35 38.8429C19.5748 38.8429 18.9055 38.7185 18.3423 38.4696C17.7865 38.2209 17.3549 37.8551 17.0478 37.3726C16.7754 36.9449 16.6094 36.4281 16.5498 35.8225C16.5368 35.6901 16.4278 35.5858 16.2946 35.5858H10.9905C10.852 35.5858 10.7397 35.6985 10.7427 35.8369C10.7826 37.6613 11.1838 39.1685 11.9463 40.3584C12.7509 41.5949 13.8771 42.5109 15.3254 43.1065C16.7808 43.7021 18.4849 44 20.4378 44C22.3394 44 23.9666 43.7247 25.3198 43.1744C25.9325 42.9265 26.4814 42.6274 26.9665 42.277L27.3334 43.5684C27.364 43.6759 27.4621 43.75 27.5739 43.75H33.0155C33.1265 43.75 33.2241 43.6769 33.2554 43.5703L36.9838 30.8466C36.9983 30.7969 37.0439 30.7628 37.0958 30.7628C37.1476 30.7628 37.1933 30.7969 37.2079 30.8466L40.9361 43.5703C40.9674 43.6769 41.0651 43.75 41.1761 43.75H46.6176C46.7294 43.75 46.8276 43.6759 46.8581 43.5684L53.3211 20.8184C53.3665 20.6587 53.2466 20.5 53.0806 20.5H46.8339C46.7159 20.5 46.614 20.5825 46.5894 20.6979L43.5883 34.7624C43.5774 34.8132 43.5325 34.8496 43.4805 34.8496C43.43 34.8496 43.386 34.8154 43.3736 34.7664L39.8118 20.6886C39.7838 20.5778 39.6839 20.5 39.5694 20.5H34.622C34.5076 20.5 34.4078 20.5776 34.3796 20.6885L30.818 34.721C30.8056 34.77 30.7616 34.8042 30.7111 34.8042C30.6591 34.8042 30.6141 34.7679 30.6033 34.717L29.5965 30.0134C29.5965 30.0134 29.2296 30.0134 26.9665 30.0134C24.7034 30.0134 21.1849 29.4731 20.7094 29.39L20.701 29.3881C20.1671 29.275 19.7064 29.1469 19.3188 29.0036C18.9311 28.8604 18.6129 28.702 18.3643 28.5286C18.1156 28.3476 17.9328 28.1479 17.8158 27.9291C17.706 27.703 17.6585 27.4504 17.6731 27.1714C17.6804 26.8321 17.7791 26.5305 17.9693 26.2666C18.1595 26.0027 18.452 25.7954 18.847 25.6446C19.2493 25.4862 19.7649 25.4071 20.3939 25.4071C21.3813 25.4071 22.1163 25.6183 22.599 26.0405C23.038 26.4188 23.3039 26.9301 23.3965 27.5748ZM25.0668 20.5H27.56L27.9659 22.3959C27.9659 22.3959 27.4374 21.75 26.6874 21.2768C25.9374 20.8036 25.0668 20.5 25.0668 20.5Z" fill="white"/>
</g>
</svg>
